<mxfile modified="2022-04-07T09:51:34.031Z" host="drawio-plugin" agent="5.0 (X11; Linux x86_64) AppleWebKit/537.36 (KHTML, like Gecko) Chrome/89.0.4389.114 Safari/537.36" etag="XjNTchDb7pg7F7Jbp-2Q" version="15.5.4" type="embed"><diagram id="xXD5DnYFGBBulUnZPJKQ" name="Page-1"><mxGraphModel dx="881" dy="611" grid="1" gridSize="10" guides="1" tooltips="1" connect="1" arrows="1" fold="1" page="1" pageScale="1" pageWidth="1169" pageHeight="827" math="0" shadow="0"><root><mxCell id="0"/><mxCell id="1" parent="0"/><mxCell id="qoHOIKUOJggppsxTAeiT-66" value="" style="rounded=0;whiteSpace=wrap;html=1;fillColor=#F5C425;strokeColor=#666666;fontColor=#333333;opacity=60;" parent="1" vertex="1"><mxGeometry x="790" y="250" width="275" height="150" as="geometry"/></mxCell><mxCell id="qoHOIKUOJggppsxTAeiT-63" value="" style="rounded=0;whiteSpace=wrap;html=1;fillColor=#f5f5f5;strokeColor=#666666;fontColor=#333333;opacity=60;" parent="1" vertex="1"><mxGeometry x="427.5" y="249" width="265" height="330" as="geometry"/></mxCell><mxCell id="qoHOIKUOJggppsxTAeiT-8" value="&lt;font color=&quot;#000000&quot;&gt;Fluid Core&lt;/font&gt;" style="rounded=0;whiteSpace=wrap;html=1;fillColor=#d5e8d4;strokeColor=#82b366;" parent="1" vertex="1"><mxGeometry x="525" y="360" width="120" height="60" as="geometry"/></mxCell><mxCell id="qoHOIKUOJggppsxTAeiT-10" value="&lt;b&gt;&lt;font color=&quot;#000000&quot;&gt;central-ledger&lt;/font&gt;&lt;/b&gt;" style="shape=cylinder;whiteSpace=wrap;html=1;boundedLbl=1;backgroundOutline=1;fillColor=#ffcd28;strokeColor=#d79b00;gradientColor=#ffa500;" parent="1" vertex="1"><mxGeometry x="845" y="300" width="100" height="80" as="geometry"/></mxCell><mxCell id="qoHOIKUOJggppsxTAeiT-21" style="edgeStyle=orthogonalEdgeStyle;rounded=1;orthogonalLoop=1;jettySize=auto;html=1;exitX=0.75;exitY=0;exitDx=0;exitDy=0;startArrow=classic;startFill=1;" parent="1" source="55" edge="1"><mxGeometry relative="1" as="geometry"><mxPoint x="790" y="270" as="targetPoint"/><Array as="points"><mxPoint x="605" y="360"/><mxPoint x="605" y="270"/></Array></mxGeometry></mxCell><mxCell id="46" value="All Data" style="edgeLabel;html=1;align=center;verticalAlign=middle;resizable=0;points=[];" parent="qoHOIKUOJggppsxTAeiT-21" vertex="1" connectable="0"><mxGeometry x="-0.1323" y="3" relative="1" as="geometry"><mxPoint as="offset"/></mxGeometry></mxCell><mxCell id="qoHOIKUOJggppsxTAeiT-15" value="&lt;font color=&quot;#000000&quot;&gt;Fluid App&lt;br&gt;&lt;/font&gt;" style="rounded=0;whiteSpace=wrap;html=1;fillColor=#d5e8d4;strokeColor=#82b366;" parent="1" vertex="1"><mxGeometry x="510" y="350" width="120" height="60" as="geometry"/></mxCell><mxCell id="qoHOIKUOJggppsxTAeiT-28" style="edgeStyle=orthogonalEdgeStyle;rounded=0;orthogonalLoop=1;jettySize=auto;html=1;exitX=0.5;exitY=1;exitDx=0;exitDy=0;" parent="1" edge="1"><mxGeometry relative="1" as="geometry"><mxPoint x="629" y="410" as="sourcePoint"/><mxPoint x="629" y="410" as="targetPoint"/></mxGeometry></mxCell><mxCell id="qoHOIKUOJggppsxTAeiT-64" value="Central Services" style="text;html=1;strokeColor=none;fillColor=none;align=center;verticalAlign=middle;whiteSpace=wrap;rounded=0;opacity=60;fontSize=14;fontStyle=1" parent="1" vertex="1"><mxGeometry x="500" y="310" width="130" height="20" as="geometry"/></mxCell><mxCell id="qoHOIKUOJggppsxTAeiT-67" value="DB Server" style="text;html=1;strokeColor=none;fillColor=none;align=center;verticalAlign=middle;whiteSpace=wrap;rounded=0;opacity=60;fontSize=14;fontStyle=1" parent="1" vertex="1"><mxGeometry x="847.5" y="190" width="170" height="20" as="geometry"/></mxCell><mxCell id="10" value="" style="edgeStyle=orthogonalEdgeStyle;rounded=0;orthogonalLoop=1;jettySize=auto;html=1;entryX=0;entryY=0.5;entryDx=0;entryDy=0;startArrow=none;" parent="1" source="qoHOIKUOJggppsxTAeiT-68" target="qoHOIKUOJggppsxTAeiT-15" edge="1"><mxGeometry relative="1" as="geometry"/></mxCell><mxCell id="3" value="Mojaloop Adapter" style="rounded=0;whiteSpace=wrap;html=1;fontSize=12;opacity=60;" parent="1" vertex="1"><mxGeometry x="170" y="350" width="120" height="60" as="geometry"/></mxCell><mxCell id="43" value="&lt;div&gt;&lt;br&gt;&lt;/div&gt;&lt;ul&gt;&lt;li&gt;MySQL&lt;/li&gt;&lt;li&gt;Postgress&lt;/li&gt;&lt;/ul&gt;" style="text;strokeColor=none;fillColor=none;html=1;whiteSpace=wrap;verticalAlign=middle;overflow=hidden;" parent="1" vertex="1"><mxGeometry x="830" y="230" width="105" height="80" as="geometry"/></mxCell><mxCell id="53" value="" style="edgeStyle=orthogonalEdgeStyle;rounded=0;orthogonalLoop=1;jettySize=auto;html=1;entryX=0;entryY=0.5;entryDx=0;entryDy=0;endArrow=none;" parent="1" source="3" target="qoHOIKUOJggppsxTAeiT-15" edge="1"><mxGeometry relative="1" as="geometry"><mxPoint x="265" y="370" as="sourcePoint"/><mxPoint x="485" y="240" as="targetPoint"/></mxGeometry></mxCell><mxCell id="55" value="&lt;font color=&quot;#000000&quot;&gt;&lt;b&gt;Central Ledger&lt;br&gt;&lt;/b&gt;NodeJS&lt;br&gt;&lt;/font&gt;" style="rounded=0;whiteSpace=wrap;html=1;fillColor=#d5e8d4;strokeColor=#82b366;" parent="1" vertex="1"><mxGeometry x="520" y="360" width="120" height="60" as="geometry"/></mxCell><mxCell id="qoHOIKUOJggppsxTAeiT-68" value="&lt;font color=&quot;#000000&quot;&gt;WAF&lt;/font&gt;" style="rounded=0;whiteSpace=wrap;html=1;fillColor=#fff2cc;strokeColor=#d6b656;" parent="1" vertex="1"><mxGeometry x="440" y="345" width="45" height="70" as="geometry"/></mxCell><mxCell id="qoHOIKUOJggppsxTAeiT-34" value="&lt;font color=&quot;#000000&quot;&gt;DMZ&lt;/font&gt;" style="rounded=0;whiteSpace=wrap;html=1;fillColor=#fff2cc;strokeColor=#d6b656;" parent="1" vertex="1"><mxGeometry x="540" y="430" width="114" height="30" as="geometry"/></mxCell><mxCell id="70" value="" style="rounded=0;whiteSpace=wrap;html=1;fillColor=#F19C99;strokeColor=#666666;fontColor=#333333;opacity=60;" parent="1" vertex="1"><mxGeometry x="790" y="440" width="275" height="160" as="geometry"/></mxCell><mxCell id="71" value="Redis Cluster" style="text;html=1;strokeColor=none;fillColor=none;align=center;verticalAlign=middle;whiteSpace=wrap;rounded=0;opacity=60;fontSize=14;fontStyle=1" parent="1" vertex="1"><mxGeometry x="845" y="470" width="130" height="20" as="geometry"/></mxCell><mxCell id="72" value="&lt;font color=&quot;#000000&quot;&gt;Redis&lt;br&gt;&lt;/font&gt;" style="whiteSpace=wrap;html=1;shape=mxgraph.basic.isocube;isoAngle=15;fillColor=#FC003A;strokeColor=#6F0000;fontColor=#ffffff;" parent="1" vertex="1"><mxGeometry x="875" y="510" width="75" height="70" as="geometry"/></mxCell><mxCell id="74" value="" style="endArrow=classic;html=1;exitX=0.75;exitY=1;exitDx=0;exitDy=0;entryX=0;entryY=0.5;entryDx=0;entryDy=0;rounded=1;" parent="1" source="55" target="70" edge="1"><mxGeometry relative="1" as="geometry"><mxPoint x="530" y="540" as="sourcePoint"/><mxPoint x="800" y="580" as="targetPoint"/><Array as="points"><mxPoint x="610" y="520"/></Array></mxGeometry></mxCell><mxCell id="75" value="Participant Data" style="edgeLabel;resizable=0;html=1;align=center;verticalAlign=middle;rotation=0;" parent="74" connectable="0" vertex="1"><mxGeometry relative="1" as="geometry"><mxPoint x="8" as="offset"/></mxGeometry></mxCell></root></mxGraphModel></diagram></mxfile>